Coordinates
version=1
nRows=6
nColumns=107
inDegrees=yes

Units are S.I. units (second, meters, Newtons, ...)
If the header above contains a line with 'inDegrees', this indicates whether rotational values are in degrees (yes) or radians (no).

endheader
time	sternoclavicular_r2	sternoclavicular_r3	unrotscap_r3	unrotscap_r2	acromioclavicular_r2	acromioclavicular_r3	acromioclavicular_r1	unrothum_r1	unrothum_r3	unrothum_r2	elv_angle	shoulder_elv	shoulder1_r2	shoulder_rot	elbow_flexion	pro_sup	deviation	flexion	proximal_distal_r1	proximal_distal_r3	cmc_flexion	cmc_abduction	mp_flexion	ip_flexion	mcp2_flexion	mcp2_abduction	pm2_flexion	md2_flexion	mcp3_flexion	mcp3_abduction	pm3_flexion	md3_flexion	mcp4_flexion	mcp4_abduction	pm4_flexion	md4_flexion	mcp5_flexion	mcp5_abduction	pm5_flexion	md5_flexion	bicpt_tx	bicpt_ty	bicpt_tz	bicpt2_tx	bicpt2_ty	bicpt2_tz	ptpt_tx	ptpt_ty	ptpt_tz	FCUpt_tx	FCUpt_ty	FCUpt_tz	EDCpt_tx	EDCpt_ty	EDCpt_tz	APLpt_tx	APLpt_ty	APLpt_tz	FPLpt_tx	FPLpt_ty	FPLpt_tz	FPLpt2_tx	FPLpt2_ty	FPLpt2_tz	PEC1pt2_tx	PEC1pt2_ty	PEC1pt2_tz	PEC1pt3_tx	PEC1pt3_ty	PEC1pt3_tz	PEC2pt2_tx	PEC2pt2_ty	PEC2pt2_tz	PEC2pt3_tx	PEC2pt3_ty	PEC2pt3_tz	PEC3pt2_tx	PEC3pt2_ty	PEC3pt2_tz	PEC3pt3_tx	PEC3pt3_ty	PEC3pt3_tz	DELT2pt2a_tx	DELT2pt2a_ty	DELT2pt2a_tz	DELT2pt2_tx	DELT2pt2_ty	DELT2pt2_tz	LAT1pt2_tx	LAT1pt2_ty	LAT1pt2_tz	LAT1pt3_tx	LAT1pt3_ty	LAT1pt3_tz	LAT2pt2_tx	LAT2pt2_ty	LAT2pt2_tz	LAT2pt3_tx	LAT2pt3_ty	LAT2pt3_tz	LAT3pt2_tx	LAT3pt2_ty	LAT3pt2_tz	LAT3pt3_tx	LAT3pt3_ty	LAT3pt3_tz
      0.00000000	     -0.32148338	      0.13616519	     -0.13616519	      0.32148338	     -0.06509384	      0.52606556	      0.23646285	     -0.23646285	     -0.52606556	      0.06509384	     99.15025381	     76.11404747	     -1.73049838	    -22.62353941	     28.92815213	     25.12798141	      0.06830005	     -0.72115314	      0.08887462	     -0.36057657	     -3.90123138	     -2.77308528	    -30.63119856	    -45.69159081	     -3.04371313	      7.52343776	     17.00545705	    -16.80823986	     33.39319588	      9.79439593	     82.62239202	     65.68849670	     22.89912787	     -2.88206935	     79.36038484	     53.14952410	      8.73351957	    -13.54397536	     -7.40563374	      5.10457612	      0.00085685	     -0.03091561	     -0.00483406	      0.01629363	     -0.01805847	     -0.00890259	      0.00569333	     -0.06610056	     -0.00207419	      0.00631707	     -0.18377304	     -0.00019756	     -0.00301535	      0.00080940	      0.00019325	      0.00030231	      0.00012093	      0.00060463	      0.00038696	      0.00116088	      0.00065300	     -0.00024085	      0.00010599	      0.00012718	      0.00249485	      0.00875312	      0.00608913	     -0.00816112	      0.01970510	     -0.01869024	      0.00249485	      0.00875312	      0.00608913	      0.00054971	      0.01826739	     -0.00959884	      0.00394594	      0.00486750	      0.01596274	      0.00000000	      0.00774773	      0.00000000	     -0.00714627	     -0.03302507	     -0.00638818	      0.01524415	     -0.00051385	     -0.00426220	     -0.00088800	      0.01488454	     -0.00608913	      0.00245257	      0.02148109	     -0.01775996	     -0.00596227	      0.01289711	     -0.00545484	     -0.01243197	      0.02723194	     -0.03048793	     -0.02334166	      0.01441940	     -0.00731541	     -0.01547654	      0.03146050	     -0.03809934
      0.03333333	     -0.32043536	      0.13572129	     -0.13572129	      0.32043536	     -0.06488164	      0.52435060	      0.23569199	     -0.23569199	     -0.52435060	      0.06488164	     99.51240033	     75.86591863	     -1.73681903	    -24.07018077	     28.73930235	     26.71873374	      0.05670844	     -0.71951024	      0.07432986	     -0.35975512	     -3.83085809	     -2.74439240	    -30.24766897	    -45.74274652	     -2.55161082	      7.21306253	     17.70797666	    -19.11235512	     33.15100294	      9.62748814	     82.29439911	     66.44829885	     24.69845409	     -2.80275502	     79.20869168	     51.97969327	      9.70853365	    -13.58187834	     -8.18321929	      5.06167085	      0.00085061	     -0.03089396	     -0.00483057	      0.01634783	     -0.01800717	     -0.00876417	      0.00557579	     -0.06617656	     -0.00220234	      0.00647032	     -0.18374630	     -0.00022572	     -0.00320624	      0.00086720	      0.00019397	      0.00030262	      0.00012105	      0.00060525	      0.00038736	      0.00116207	      0.00065367	     -0.00023393	      0.00010392	      0.00012471	      0.00248672	      0.00872459	      0.00606928	     -0.00813452	      0.01964086	     -0.01862931	      0.00248672	      0.00872459	      0.00606928	      0.00054792	      0.01820784	     -0.00956754	      0.00393653	      0.00485163	      0.01593967	      0.00000000	      0.00769695	      0.00000000	     -0.00712297	     -0.03291741	     -0.00634602	      0.01601419	     -0.00056011	     -0.00483786	     -0.00088510	      0.01483601	     -0.00606928	      0.00244457	      0.02141107	     -0.01770206	     -0.00594284	      0.01285507	     -0.00543706	     -0.01239144	      0.02714316	     -0.03038854	     -0.02326557	      0.01437239	     -0.00729156	     -0.01542608	      0.03135794	     -0.03797514
      0.06666667	     -0.32049446	      0.13574633	     -0.13574633	      0.32049446	     -0.06489361	      0.52444732	      0.23573546	     -0.23573546	     -0.52444732	      0.06489361	     99.61384865	     75.87991293	     -1.73858964	    -24.02199069	     28.51470906	     26.65781669	      0.05482395	     -0.71706193	      0.07194413	     -0.35853097	     -3.82094400	     -2.77713074	    -30.23689502	    -45.73662925	     -2.45216429	      7.16683797	     17.74855320	    -19.10000146	     33.08515201	      9.59236480	     82.27625310	     66.45647230	     24.82713294	     -2.77000119	     79.24650655	     51.98031873	      9.77309119	    -13.56938394	     -8.15559058	      5.06615908	      0.00084318	     -0.03086822	     -0.00482642	      0.01634586	     -0.01794616	     -0.00876953	      0.00558029	     -0.06617365	     -0.00219743	      0.00646443	     -0.18374734	     -0.00022468	     -0.00319893	      0.00086497	      0.00019396	      0.00030306	      0.00012122	      0.00060611	      0.00038791	      0.00116374	      0.00065460	     -0.00023297	      0.00010363	      0.00012436	      0.00248718	      0.00872620	      0.00607040	     -0.00813602	      0.01964448	     -0.01863275	      0.00248718	      0.00872620	      0.00607040	      0.00054802	      0.01821119	     -0.00956931	      0.00393706	      0.00485253	      0.01594098	      0.00000000	      0.00769981	      0.00000000	     -0.00712429	     -0.03292348	     -0.00634840	      0.01598897	     -0.00055856	     -0.00481821	     -0.00088527	      0.01483875	     -0.00607040	      0.00244502	      0.02141502	     -0.01770533	     -0.00594393	      0.01285744	     -0.00543807	     -0.01239373	      0.02714817	     -0.03039415	     -0.02326986	      0.01437504	     -0.00729291	     -0.01542893	      0.03136372	     -0.03798214
      0.10000000	     -0.32026228	      0.13564799	     -0.13564799	      0.32026228	     -0.06484660	      0.52406739	      0.23556469	     -0.23556469	     -0.52406739	      0.06484660	     99.62196131	     75.82494242	     -1.73873123	    -24.00721447	     28.50378809	     26.65789771	      0.05473117	     -0.71693897	      0.07182606	     -0.35846948	     -3.82069195	     -2.77783877	    -30.23665926	    -45.73647476	     -2.44545157	      7.16608371	     17.74973777	    -19.09921621	     33.08370508	      9.59158217	     82.27583561	     66.45665111	     24.83498314	     -2.76921639	     79.24864333	     51.98033699	      9.77801721	    -13.56915366	     -8.15376201	      5.06623634	      0.00084282	     -0.03086697	     -0.00482622	      0.01634586	     -0.01794319	     -0.00876953	      0.00558028	     -0.06617365	     -0.00219744	      0.00646444	     -0.18374734	     -0.00022468	     -0.00319894	      0.00086497	      0.00019396	      0.00030308	      0.00012123	      0.00060615	      0.00038794	      0.00116382	      0.00065465	     -0.00023294	      0.00010363	      0.00012435	      0.00248538	      0.00871988	      0.00606600	     -0.00813013	      0.01963025	     -0.01861925	      0.00248538	      0.00871988	      0.00606600	      0.00054763	      0.01819800	     -0.00956238	      0.00393497	      0.00484901	      0.01593585	      0.00000000	      0.00768858	      0.00000000	     -0.00711913	     -0.03289963	     -0.00633907	      0.01598124	     -0.00055808	     -0.00481219	     -0.00088463	      0.01482800	     -0.00606600	      0.00244325	      0.02139950	     -0.01769250	     -0.00593963	      0.01284813	     -0.00543413	     -0.01238475	      0.02712850	     -0.03037213	     -0.02325300	      0.01436463	     -0.00728763	     -0.01541775	      0.03134100	     -0.03795463
      0.13333333	     -0.31965065	      0.13538893	     -0.13538893	      0.31965065	     -0.06472275	      0.52306653	      0.23511481	     -0.23511481	     -0.52306653	      0.06472275	     99.85843199	     75.68013270	     -1.74285842	    -25.45916514	     28.58373015	     29.54940872	      0.05546275	     -0.67100905	      0.07275293	     -0.33550453	     -3.02301853	     -4.01204003	    -29.79054754	    -44.97523185	     -3.16763762	      6.61116197	     18.35281117	    -19.82728412	     32.36302305	      9.65215087	     82.74307109	     66.96377018	     26.92018023	     -2.14049368	     79.93999735	     51.30410965	     10.64992861	    -13.57557861	     -8.21891414	      4.97974697	      0.00084546	     -0.03087613	     -0.00482770	      0.01642995	     -0.01796491	     -0.00850908	      0.00536663	     -0.06631180	     -0.00243036	      0.00674494	     -0.18369696	     -0.00027111	     -0.00354592	      0.00097198	      0.00019185	      0.00030947	      0.00012379	      0.00061894	      0.00039612	      0.00118837	      0.00066846	     -0.00016205	      0.00008065	      0.00009678	      0.00248063	      0.00870322	      0.00605442	     -0.00811460	      0.01959276	     -0.01858369	      0.00248063	      0.00870322	      0.00605442	      0.00054658	      0.01816325	     -0.00954411	      0.00392947	      0.00483975	      0.01592231	      0.00000000	      0.00765904	      0.00000000	     -0.00710553	     -0.03283680	     -0.00631455	      0.01672717	     -0.00060523	     -0.00541882	     -0.00088294	      0.01479968	     -0.00605442	      0.00243858	      0.02135863	     -0.01765871	     -0.00592828	      0.01282359	     -0.00542375	     -0.01236110	      0.02707669	     -0.03031412	     -0.02320859	      0.01433719	     -0.00727371	     -0.01538831	      0.03128115	     -0.03788214
      0.16666667	     -0.32036781	      0.13569268	     -0.13569268	      0.32036781	     -0.06486796	      0.52424007	      0.23564230	     -0.23564230	     -0.52424007	      0.06486796	     99.57050749	     75.84992646	     -1.73783319	    -24.72613507	     28.93729372	     29.18214777	      0.07264404	     -0.61070565	      0.09426888	     -0.30535283	     -4.07312379	     -3.75162973	    -28.92748799	    -43.46760083	     -3.87144877	      7.05672181	     20.03299004	    -20.46601607	     31.92319227	      9.92029701	     81.51688095	     65.82711754	     26.52427727	     -2.18266138	     79.37978369	     50.34223465	     10.73544462	    -13.46934791	     -8.84055023	      4.96176235	      0.00085716	     -0.03091666	     -0.00483423	      0.01642035	     -0.01806096	     -0.00854282	      0.00539377	     -0.06629425	     -0.00240078	      0.00670917	     -0.18370349	     -0.00026556	     -0.00350185	      0.00095824	      0.00019237	      0.00031256	      0.00012502	      0.00062511	      0.00040007	      0.00120022	      0.00067512	     -0.00025807	      0.00011104	      0.00013324	      0.00248619	      0.00872275	      0.00606800	     -0.00813280	      0.01963672	     -0.01862539	      0.00248619	      0.00872275	      0.00606800	      0.00054781	      0.01820400	     -0.00956553	      0.00393592	      0.00485061	      0.01593818	      0.00000000	      0.00769369	      0.00000000	     -0.00712147	     -0.03291047	     -0.00634331	      0.01635417	     -0.00058134	     -0.00510878	     -0.00088492	      0.01483289	     -0.00606800	      0.00244406	      0.02140655	     -0.01769833	     -0.00594158	      0.01285236	     -0.00543592	     -0.01238883	      0.02713744	     -0.03038214	     -0.02326066	      0.01436936	     -0.00729003	     -0.01542283	      0.03135133	     -0.03796713
